<?xml version="1.0" encoding="UTF-8"?>
<!DOCTYPE svg PUBLIC "-//W3C//DTD SVG 1.1//EN" "http://www.w3.org/Graphics/SVG/1.1/DTD/svg11.dtd">
<svg xmlns="http://www.w3.org/2000/svg" version="1.1" width="512px" height="512px" style="shape-rendering:geometricPrecision; text-rendering:geometricPrecision; image-rendering:optimizeQuality; fill-rule:evenodd; clip-rule:evenodd" xmlns:xlink="http://www.w3.org/1999/xlink">
<g><path style="opacity:0.987" fill="#000000" d="M -0.5,349.5 C -0.5,343.167 -0.5,336.833 -0.5,330.5C 1.20796,326.238 3.04129,321.904 5,317.5C 20.0785,297.01 34.9119,276.343 49.5,255.5C 35.6667,236.5 21.8333,217.5 8,198.5C 4.10455,193.281 1.27122,187.614 -0.5,181.5C -0.5,175.167 -0.5,168.833 -0.5,162.5C 3.59505,148.5 12.2617,138.334 25.5,132C 52.7366,126.627 80.0699,121.794 107.5,117.5C 111.136,90.3522 115.636,63.3522 121,36.5C 132.887,13.4821 151.387,5.64879 176.5,13C 180.327,14.746 183.993,16.746 187.5,19C 206.667,32.8333 225.833,46.6667 245,60.5C 266.57,44.6315 288.403,29.1315 310.5,14C 336.896,5.01476 356.396,12.8481 369,37.5C 371.322,47.7623 373.322,58.0956 375,68.5C 377.333,75.1667 379.667,81.8333 382,88.5C 382.667,90.1667 382.667,91.8333 382,93.5C 342.167,133.333 302.333,173.167 262.5,213C 261.5,213.667 260.5,213.667 259.5,213C 241.441,194.272 222.774,176.272 203.5,159C 173.883,143.802 147.05,147.636 123,170.5C 101.876,197.663 101.209,225.329 121,253.5C 154.167,286.667 187.333,319.833 220.5,353C 248.667,372.859 276.334,372.192 303.5,351C 345.347,308.986 387.347,267.153 429.5,225.5C 434.148,236.272 438.315,247.272 442,258.5C 458.113,279.948 473.446,301.948 488,324.5C 494.514,345.623 489.014,362.79 471.5,376C 467.952,377.941 464.286,379.607 460.5,381C 434.597,385.345 408.763,389.845 383,394.5C 378.549,421.208 373.882,447.875 369,474.5C 359.582,494.63 343.749,503.463 321.5,501C 315.752,500.127 310.419,498.127 305.5,495C 285.167,480.5 264.833,466 244.5,451.5C 222.675,467.246 200.675,482.746 178.5,498C 157.813,505.62 140.313,501.12 126,484.5C 123.473,480.779 121.473,476.779 120,472.5C 115.282,446.194 110.782,419.861 106.5,393.5C 82.1771,389.669 57.8438,385.835 33.5,382C 16.084,377.415 4.75062,366.582 -0.5,349.5 Z"/></g>
<g><path style="opacity:0.968" fill="#000000" d="M 511.5,67.5 C 511.5,72.1667 511.5,76.8333 511.5,81.5C 510.108,83.2726 508.941,85.2726 508,87.5C 429.833,165.667 351.667,243.833 273.5,322C 263.748,327.113 254.415,326.447 245.5,320C 215,289.5 184.5,259 154,228.5C 145.745,216.297 146.912,205.131 157.5,195C 165.833,190.333 174.167,190.333 182.5,195C 208.972,220.472 235.139,246.305 261,272.5C 332.833,200.667 404.667,128.833 476.5,57C 491.688,49.2094 503.355,52.7094 511.5,67.5 Z"/></g>
</svg>
