<?xml version="1.0" encoding="UTF-8"?>
<!DOCTYPE svg PUBLIC "-//W3C//DTD SVG 1.1//EN" "http://www.w3.org/Graphics/SVG/1.1/DTD/svg11.dtd">
<svg xmlns="http://www.w3.org/2000/svg" version="1.1" width="512px" height="512px" style="shape-rendering:geometricPrecision; text-rendering:geometricPrecision; image-rendering:optimizeQuality; fill-rule:evenodd; clip-rule:evenodd" xmlns:xlink="http://www.w3.org/1999/xlink">
<g><path style="opacity:0.99" fill="#000000" d="M 511.5,64.5 C 511.5,149.5 511.5,234.5 511.5,319.5C 505.036,343.793 489.369,358.293 464.5,363C 353.833,363.667 243.167,363.667 132.5,363C 108.307,359.473 92.8071,345.973 86,322.5C 84.8465,279.037 84.3465,235.537 84.5,192C 84.3465,148.463 84.8465,104.963 86,61.5C 91.393,41.7733 103.893,28.94 123.5,23C 238.457,21.3413 353.457,21.0079 468.5,22C 491.348,27.6815 505.681,41.8481 511.5,64.5 Z M 135.5,64.5 C 243.834,64.3333 352.167,64.5 460.5,65C 464.333,66.1667 466.833,68.6667 468,72.5C 468.667,123.167 468.667,173.833 468,224.5C 444.207,196.371 420.04,168.538 395.5,141C 374.721,129.685 356.554,132.852 341,150.5C 315.667,181.167 290.333,211.833 265,242.5C 254.471,231.637 243.637,221.137 232.5,211C 216.708,203.208 201.708,204.541 187.5,215C 167.667,234.833 147.833,254.667 128,274.5C 127.333,208.167 127.333,141.833 128,75.5C 128.542,70.393 131.042,66.7264 135.5,64.5 Z"/></g>
<g><path style="opacity:0.974" fill="#000000" d="M 181.5,85.5 C 209.105,82.3656 226.605,94.0323 234,120.5C 236.475,145.342 225.975,161.842 202.5,170C 176.981,174.326 159.481,164.493 150,140.5C 145.025,113.1 155.525,94.7666 181.5,85.5 Z"/></g>
<g><path style="opacity:0.978" fill="#000000" d="M -0.5,364.5 C -0.5,357.833 -0.5,351.167 -0.5,344.5C 17.0021,285.848 34.8354,227.181 53,168.5C 53.0259,222.198 53.6925,275.865 55,329.5C 61.546,358.38 78.546,378.38 106,389.5C 112.645,391.87 119.478,393.37 126.5,394C 231.833,394.5 337.166,394.667 442.5,394.5C 436.05,418.02 428.883,441.354 421,464.5C 407.334,487.411 387.5,495.578 361.5,489C 251.123,459.489 140.79,429.822 30.5,400C 14.2483,393.254 3.91496,381.42 -0.5,364.5 Z"/></g>
</svg>
