<?xml version="1.0" encoding="UTF-8"?>
<!DOCTYPE svg PUBLIC "-//W3C//DTD SVG 1.1//EN" "http://www.w3.org/Graphics/SVG/1.1/DTD/svg11.dtd">
<svg xmlns="http://www.w3.org/2000/svg" version="1.1" width="512px" height="512px" style="shape-rendering:geometricPrecision; text-rendering:geometricPrecision; image-rendering:optimizeQuality; fill-rule:evenodd; clip-rule:evenodd" xmlns:xlink="http://www.w3.org/1999/xlink">
<g><path style="opacity:0.962" fill="#000000" d="M 356.5,-0.5 C 366.167,-0.5 375.833,-0.5 385.5,-0.5C 417.202,5.02585 441.536,21.5258 458.5,49C 485.392,48.0956 503.059,60.2622 511.5,85.5C 511.5,178.5 511.5,271.5 511.5,364.5C 506.152,384.677 493.152,396.843 472.5,401C 414.83,401.167 357.164,401.667 299.5,402.5C 308.373,418.415 317.373,434.248 326.5,450C 350.461,450.381 367.628,461.215 378,482.5C 381.384,490.667 382.051,499.001 380,507.5C 378.603,509.07 377.103,510.404 375.5,511.5C 295.5,511.5 215.5,511.5 135.5,511.5C 131.05,508.863 129.05,504.863 129.5,499.5C 131.182,478.946 141.182,464.113 159.5,455C 167.611,452.277 175.944,450.61 184.5,450C 193.627,434.248 202.627,418.415 211.5,402.5C 153.836,401.667 96.1696,401.167 38.5,401C 17.8478,396.843 4.84783,384.677 -0.5,364.5C -0.5,271.5 -0.5,178.5 -0.5,85.5C 5.09345,66.7416 17.4268,54.9083 36.5,50C 118.833,49.6667 201.167,49.3333 283.5,49C 300.464,21.5258 324.798,5.02585 356.5,-0.5 Z M 370.5,19.5 C 411.65,22.4878 437.817,43.8211 449,83.5C 454.384,116.362 444.217,143.195 418.5,164C 384.805,185.506 351.805,184.506 319.5,161C 289.199,131.484 283.365,97.6502 302,59.5C 318.003,34.4168 340.837,21.0834 370.5,19.5 Z M 39.5,70.5 C 117.834,70.3333 196.167,70.5 274.5,71C 263.283,115.349 275.283,152.015 310.5,181C 341.671,202.359 375.004,206.359 410.5,193C 454.296,171.593 474.463,136.427 471,87.5C 470.534,82.0019 469.367,76.6686 467.5,71.5C 482.141,72.9832 489.974,81.3166 491,96.5C 491.5,164.499 491.667,232.499 491.5,300.5C 334.167,300.5 176.833,300.5 19.5,300.5C 19.3333,232.499 19.5,164.499 20,96.5C 20.6827,83.3348 27.1827,74.6681 39.5,70.5 Z M 358.5,75.5 C 371.502,82.3316 384.168,89.6649 396.5,97.5C 384.282,105.197 371.782,112.53 359,119.5C 358.5,104.837 358.333,90.1705 358.5,75.5 Z M 141.5,110.5 C 148.525,110.03 152.859,113.196 154.5,120C 152.349,128.241 147.349,130.907 139.5,128C 133.077,121.483 133.744,115.65 141.5,110.5 Z M 68.5,240.5 C 193.167,240.333 317.834,240.5 442.5,241C 450.581,243.803 452.581,248.969 448.5,256.5C 446.705,258.703 444.371,259.869 441.5,260C 317.5,260.667 193.5,260.667 69.5,260C 60.5042,257.838 58.1709,252.672 62.5,244.5C 64.2903,242.684 66.2903,241.351 68.5,240.5 Z M 19.5,321.5 C 176.833,321.5 334.167,321.5 491.5,321.5C 491.667,332.505 491.5,343.505 491,354.5C 490.214,367.924 483.381,376.424 470.5,380C 327.167,380.667 183.833,380.667 40.5,380C 27.6194,376.424 20.7861,367.924 20,354.5C 19.5002,343.505 19.3335,332.505 19.5,321.5 Z M 236.5,401.5 C 249.171,401.333 261.838,401.5 274.5,402C 283.581,418.164 292.914,434.164 302.5,450C 271.167,450.667 239.833,450.667 208.5,450C 218.224,434.051 227.557,417.884 236.5,401.5 Z M 177.5,471.5 C 229.501,471.333 281.501,471.5 333.5,472C 345.087,473.751 353.42,479.918 358.5,490.5C 289.833,491.833 221.167,491.833 152.5,490.5C 157.741,479.905 166.075,473.572 177.5,471.5 Z"/></g>
<g><path style="opacity:0.96" fill="#000000" d="M 343.5,47.5 C 346.85,47.335 350.183,47.5017 353.5,48C 377.005,61.5866 400.671,74.9199 424.5,88C 429.275,91.6551 430.775,96.4884 429,102.5C 426.433,105.731 423.266,108.231 419.5,110C 398.167,122 376.833,134 355.5,146C 348.973,148.911 343.473,147.745 339,142.5C 338.333,112.5 338.333,82.5 339,52.5C 340.366,50.6383 341.866,48.9717 343.5,47.5 Z M 358.5,75.5 C 358.333,90.1705 358.5,104.837 359,119.5C 371.782,112.53 384.282,105.197 396.5,97.5C 384.168,89.6649 371.502,82.3316 358.5,75.5 Z"/></g>
<g><path style="opacity:0.944" fill="#000000" d="M 138.5,89.5 C 160.022,88.5219 172.355,98.6886 175.5,120C 172.379,141.46 160.046,151.46 138.5,150C 119.296,144.089 111.462,131.256 115,111.5C 119.212,100.116 127.045,92.7831 138.5,89.5 Z M 141.5,110.5 C 133.744,115.65 133.077,121.483 139.5,128C 147.349,130.907 152.349,128.241 154.5,120C 152.859,113.196 148.525,110.03 141.5,110.5 Z"/></g>
<g><path style="opacity:0.949" fill="#000000" d="M 55.5,120.5 C 74.1026,126.634 90.7693,136.134 105.5,149C 121.37,163.692 134.37,180.526 144.5,199.5C 163.685,162.313 192.685,135.98 231.5,120.5C 241.609,123.052 244.443,129.052 240,138.5C 202.5,154.667 175.667,181.5 159.5,219C 254.167,219.333 348.833,219.667 443.5,220C 466.293,224.726 475.126,238.56 470,261.5C 464.743,273.412 455.576,279.912 442.5,281C 317.833,281.667 193.167,281.667 68.5,281C 45.0357,276.839 35.8691,263.006 41,239.5C 46.1007,228.024 54.9341,221.524 67.5,220C 88.1667,219.667 108.833,219.333 129.5,219C 113.333,181.5 86.5,154.667 49,138.5C 44.7351,130.049 46.9018,124.049 55.5,120.5 Z M 68.5,240.5 C 66.2903,241.351 64.2903,242.684 62.5,244.5C 58.1709,252.672 60.5042,257.838 69.5,260C 193.5,260.667 317.5,260.667 441.5,260C 444.371,259.869 446.705,258.703 448.5,256.5C 452.581,248.969 450.581,243.803 442.5,241C 317.834,240.5 193.167,240.333 68.5,240.5 Z"/></g>
<g><path style="opacity:0.942" fill="#000000" d="M 206.5,340.5 C 239.168,340.333 271.835,340.5 304.5,341C 311.495,344.986 312.995,350.486 309,357.5C 307.681,359.487 305.848,360.654 303.5,361C 271.5,361.667 239.5,361.667 207.5,361C 197.208,354.692 196.874,347.858 206.5,340.5 Z"/></g>
<g><path style="opacity:0.887" fill="#000000" d="M 417.5,340.5 C 430.676,340.518 434.51,346.518 429,358.5C 419.585,363.809 413.419,361.309 410.5,351C 411.074,346.271 413.407,342.771 417.5,340.5 Z"/></g>
<g><path style="opacity:0.882" fill="#000000" d="M 457.5,340.5 C 468.486,339.653 472.986,344.653 471,355.5C 467.179,361.393 462.012,362.893 455.5,360C 448.472,352.638 449.138,346.138 457.5,340.5 Z"/></g>
</svg>
