<?xml version="1.0" encoding="UTF-8"?>
<!DOCTYPE svg PUBLIC "-//W3C//DTD SVG 1.1//EN" "http://www.w3.org/Graphics/SVG/1.1/DTD/svg11.dtd">
<svg xmlns="http://www.w3.org/2000/svg" version="1.1" width="512px" height="512px" style="shape-rendering:geometricPrecision; text-rendering:geometricPrecision; image-rendering:optimizeQuality; fill-rule:evenodd; clip-rule:evenodd" xmlns:xlink="http://www.w3.org/1999/xlink">
<g><path style="opacity:0.969" fill="#000000" d="M 249.5,-0.5 C 253.5,-0.5 257.5,-0.5 261.5,-0.5C 263.273,0.892318 265.273,2.05898 267.5,3C 303.394,38.4492 346.394,60.4492 396.5,69C 416.397,71.8598 436.397,73.5265 456.5,74C 464.764,76.9305 469.264,82.7638 470,91.5C 470.22,121.009 470.72,150.509 471.5,180C 471.589,221.61 467.422,262.776 459,303.5C 437.528,393.968 384.361,458.135 299.5,496C 286.854,501.486 274.187,506.653 261.5,511.5C 257.5,511.5 253.5,511.5 249.5,511.5C 206.774,496.643 168.107,474.809 133.5,446C 91.6795,407.109 64.5129,359.609 52,303.5C 43.5776,262.776 39.411,221.61 39.5,180C 40.2804,150.509 40.7804,121.009 41,91.5C 41.7361,82.7638 46.2361,76.9305 54.5,74C 91.5943,74.3208 127.594,68.3208 162.5,56C 193.243,43.9005 220.243,26.2338 243.5,3C 245.727,2.05898 247.727,0.892318 249.5,-0.5 Z M 253.5,43.5 C 254.873,43.3433 256.207,43.51 257.5,44C 308.118,86.6052 366.785,108.439 433.5,109.5C 433.943,139.502 434.11,169.502 434,199.5C 433.787,236.417 429.121,272.75 420,308.5C 401.753,371.732 363.92,419.232 306.5,451C 290.117,459.959 273.117,467.459 255.5,473.5C 152.015,438.236 93.8485,366.236 81,257.5C 78.719,238.233 77.3857,218.899 77,199.5C 76.89,169.502 77.0567,139.502 77.5,109.5C 139.597,108.303 195.263,89.1367 244.5,52C 247.957,49.6132 250.957,46.7798 253.5,43.5 Z"/></g>
<g><path style="opacity:0.958" fill="#000000" d="M 325.5,187.5 C 339.007,186.57 346.674,192.736 348.5,206C 348.135,209.763 346.968,213.263 345,216.5C 311.861,250.639 278.361,284.472 244.5,318C 236.673,324.461 228.34,325.128 219.5,320C 201.667,302.167 183.833,284.333 166,266.5C 160.545,256.485 162.045,247.652 170.5,240C 177.5,236.667 184.5,236.667 191.5,240C 204.347,253.014 217.347,265.847 230.5,278.5C 259.986,249.514 289.32,220.347 318.5,191C 320.925,189.787 323.259,188.621 325.5,187.5 Z"/></g>
</svg>
